<svg fill="none" height="24" viewBox="0 0 24 24" width="24" xmlns="http://www.w3.org/2000/svg"><g fill="white"><path d="m7 5c-2.76142 0-5 2.23858-5 5 0 2.0503 1.2341 3.8124 3 4.584v2.666h14v-2.666c1.7659-.7716 3-2.5337 3-4.584 0-2.76142-2.2386-5-5-5-.2505 0-.4967.01842-.7374.05399-.6022-1.77593-2.2832-3.05399-4.2626-3.05399s-3.66039 1.27806-4.26264 3.05399c-.24063-.03557-.48684-.05399-.73736-.05399z"/><path d="m18.9983 18.75h-13.99661c.01019 1.3969.08174 2.1619.5841 2.6642.58578.5858 1.52859.5858 3.41421.5858h6c1.8856 0 2.8284 0 3.4142-.5858.5024-.5023.5739-1.2673.5841-2.6642z"/></g></svg>